<svg id="Layer_1" data-name="Layer 1" xmlns="http://www.w3.org/2000/svg" viewBox="0 0 648.86 42.39"><defs><style>.cls-1,.cls-10,.cls-11,.cls-12,.cls-3,.cls-4,.cls-5,.cls-6,.cls-7,.cls-8,.cls-9{fill:#fff;}.cls-10,.cls-11,.cls-12,.cls-2,.cls-3,.cls-4,.cls-5,.cls-6,.cls-7,.cls-8,.cls-9{isolation:isolate;}.cls-10,.cls-11,.cls-12,.cls-3,.cls-4,.cls-5,.cls-6,.cls-7,.cls-8,.cls-9{font-size:16.06px;font-family:AdobeClean-LightIt, Adobe Clean;font-weight:300;font-style:italic;}.cls-4{letter-spacing:0.01em;}.cls-5{letter-spacing:0.02em;}.cls-6{letter-spacing:0.01em;}.cls-7{letter-spacing:0.01em;}.cls-8{letter-spacing:0.02em;}.cls-9{letter-spacing:-0.01em;}.cls-10{letter-spacing:0.03em;}.cls-11{letter-spacing:-0.01em;}.cls-12{letter-spacing:0.03em;}</style></defs><g id="Group_290242" data-name="Group 290242"><g id="Adobe_Design" data-name="Adobe Design"><g id="Group_288707" data-name="Group 288707"><path id="Path_105036" data-name="Path 105036" class="cls-1" d="M61.48,15.21,60.59,18a.3.3,0,0,1-.32.26H56.86c-.23,0-.28-.12-.23-.3L61.08,5a5.22,5.22,0,0,0,.26-1.71.17.17,0,0,1,.16-.19h4.67a.19.19,0,0,1,.21.14L71.57,18c.07.19,0,.28-.14.28H67.56a.26.26,0,0,1-.28-.18l-1-2.89Zm3.9-3.44c-.45-1.58-1.06-3.59-1.53-5.33h0c-.35,1.67-1,3.85-1.46,5.33Z"/><path id="Path_105037" data-name="Path 105037" class="cls-1" d="M73.35,3.25c0-.12.05-.16.16-.19h5.14c5.49,0,8.12,3.36,8.12,7.41,0,5.66-4.53,7.82-8.52,7.82H73.54c-.12,0-.19-.07-.19-.26Zm4.1,11.61h.94c2.51,0,4.15-1.22,4.15-4.29,0-2.77-1.36-4.06-3.94-4.06H77.45Z"/><path id="Path_105038" data-name="Path 105038" class="cls-1" d="M103.46,10.57c0,4.71-2.88,8-7.5,8s-7.46-3.21-7.46-7.88c0-4.32,2.84-7.81,7.51-7.81C100.84,2.83,103.46,6.51,103.46,10.57Zm-7.38,4.48c2,0,3.16-1.55,3.16-4.39,0-2.65-1.12-4.36-3.31-4.36s-3.21,1.76-3.21,4.36S93.89,15.05,96.08,15.05Z"/><path id="Path_105039" data-name="Path 105039" class="cls-1" d="M105.88,3.39c0-.18,0-.23.18-.25.54,0,2.49-.1,5.3-.1,5.26,0,6.27,2.44,6.27,4.13a3.68,3.68,0,0,1-1.41,3,3.8,3.8,0,0,1,2.09,3.5c0,3-2.6,4.78-7,4.73-1.79,0-4.53-.07-5.26-.07-.14,0-.18-.09-.18-.23Zm4,5.45h1.76c.63,0,1.29.07,1.59.09a1.67,1.67,0,0,0,.4-1.17c0-.61-.21-1.48-2.11-1.48h-1.64Zm0,6.26c.37,0,1.12.05,1.73.05,1.6,0,2.44-.52,2.44-1.5s-.7-1.53-2.48-1.53h-1.69Z"/><path id="Path_105040" data-name="Path 105040" class="cls-1" d="M130.88,18.05c0,.19-.12.24-.28.24h-9.95c-.19,0-.23-.07-.23-.24V3.27c0-.16,0-.21.23-.21h9.71c.21,0,.26,0,.3.19l.33,3c0,.14-.05.28-.19.28h-6.28V8.81h5.79c.14,0,.21,0,.21.21V12.1c0,.14-.09.16-.21.16h-5.79v2.55h6.59c.21,0,.23.07.21.24Z"/><path id="Path_105041" data-name="Path 105041" class="cls-1" d="M58.34,25.39c0-.12,0-.16.16-.19h5.14c5.49,0,8.12,3.36,8.12,7.41,0,5.66-4.53,7.81-8.52,7.81H58.52c-.11,0-.19-.07-.19-.25ZM62.44,37h.94c2.51,0,4.15-1.22,4.15-4.29,0-2.77-1.36-4.06-3.94-4.06H62.44Z"/><path id="Path_105042" data-name="Path 105042" class="cls-1" d="M84.63,40.22c0,.19-.12.23-.28.23H74.4c-.18,0-.23-.07-.23-.23V25.44c0-.17,0-.21.23-.21h9.71c.22,0,.26,0,.3.19l.33,3c0,.14,0,.28-.18.28H78.27V31h5.8c.14,0,.21.05.21.21v3.08c0,.14-.09.16-.21.16h-5.8V37h6.59c.22,0,.24.07.22.24Z"/><path id="Path_105043" data-name="Path 105043" class="cls-1" d="M87,39.89c-.16-.07-.21-.21-.21-.42V36.11c0-.14.09-.21.23-.14a8.9,8.9,0,0,0,4.58,1.24c1.48,0,2-.4,2-1s-.4-.87-2-1.5l-1-.42c-2.68-1.06-3.8-2.46-3.8-4.57,0-2.4,1.78-4.77,6.07-4.77a10.6,10.6,0,0,1,3.75.59c.14,0,.19.14.19.3v3.24c0,.07-.07.19-.26.11a8.13,8.13,0,0,0-3.88-.8c-1.43,0-1.9.51-1.9,1s.21.82,2,1.48l.94.35c3.33,1.22,4.06,2.72,4.06,4.69,0,3.14-2.72,4.76-6.43,4.76A9.93,9.93,0,0,1,87,39.89Z"/><path id="Path_105044" data-name="Path 105044" class="cls-1" d="M104,40.17c0,.19,0,.28-.26.28h-3.59c-.21,0-.26-.09-.26-.28V25.44c0-.17.09-.21.23-.21h3.64c.16,0,.23.05.23.21Z"/><path id="Path_105045" data-name="Path 105045" class="cls-1" d="M114,35c-.19,0-.21-.09-.21-.28V31.8c0-.15,0-.19.18-.19h5.84c.17,0,.21.07.21.21v7.72c0,.16,0,.23-.18.28a14,14,0,0,1-5,.87c-5.72,0-8.56-3.33-8.56-7.84,0-4.88,3.54-7.86,8.94-7.86a11,11,0,0,1,4.22.59c.14,0,.17.14.17.35V29a.19.19,0,0,1-.14.2.24.24,0,0,1-.12,0,9.16,9.16,0,0,0-4-.75c-3.07,0-4.88,1.76-4.88,4.41a4.08,4.08,0,0,0,3.73,4.39,3,3,0,0,0,.73,0,3.38,3.38,0,0,0,1-.07v-2.1Z"/><path id="Path_105046" data-name="Path 105046" class="cls-1" d="M123.23,40.45c-.21,0-.28,0-.28-.28V25.39c0-.14.1-.19.24-.19h4.73a.31.31,0,0,1,.36.21c1.29,2.63,3.68,8,4.29,9.55h.05c-.05-.7-.1-2.11-.1-4.69V25.46c0-.16,0-.23.26-.23h3.31c.21,0,.28.07.28.26V40.17c0,.23-.09.28-.3.28h-4.39c-.24,0-.3-.05-.38-.21-1.57-3.35-3.47-7.6-4.6-10.63h0c.09,1.62.12,2.35.12,4.62v6c0,.17,0,.26-.24.26Z"/></g><g id="Group_288708" data-name="Group 288708"><path id="Path_105047" data-name="Path 105047" class="cls-1" d="M30.19,0h17.7V42.39Z"/><path id="Path_105048" data-name="Path 105048" class="cls-1" d="M17.72,0H0V42.39Z"/><path id="Path_105049" data-name="Path 105049" class="cls-1" d="M24,15.62,35.24,42.39h-7.4l-3.37-8.53H16.21Z"/></g></g><g id="Stories_from_the_team_designing_Creative_Cloud_Document_Cloud_and_Experience_Cloud." data-name="Stories from the team designing Creative Cloud Document Cloud and Experience Cloud."><g class="cls-2"><text class="cls-3" transform="translate(225.1 16.37) scale(1.16 1)">S</text><text class="cls-4" transform="translate(233.48 16.37) scale(1.16 1)">t</text><text class="cls-3" transform="translate(238.65 16.37) scale(1.16 1)">o</text><text class="cls-4" transform="translate(247.82 16.37) scale(1.16 1)">r</text><text class="cls-4" transform="translate(253.87 16.37) scale(1.16 1)">i</text><text class="cls-5" transform="translate(258.11 16.37) scale(1.16 1)">e</text><text class="cls-3" transform="translate(266.57 16.37) scale(1.16 1)">s </text><text class="cls-6" transform="translate(277.46 16.37) scale(1.16 1)">f</text><text class="cls-4" transform="translate(282.17 16.37) scale(1.16 1)">r</text><text class="cls-3" transform="translate(288.22 16.37) scale(1.16 1)">om the </text><text class="cls-4" transform="translate(343.46 16.37) scale(1.16 1)">t</text><text class="cls-4" transform="translate(348.64 16.37) scale(1.16 1)">e</text><text class="cls-3" transform="translate(356.92 16.37) scale(1.16 1)">am </text><text class="cls-7" transform="translate(385.23 16.37) scale(1.16 1)">d</text><text class="cls-8" transform="translate(394.63 16.37) scale(1.16 1)">e</text><text class="cls-3" transform="translate(403.09 16.37) scale(1.16 1)">s</text><text class="cls-4" transform="translate(409.74 16.37) scale(1.16 1)">i</text><text class="cls-3" transform="translate(413.98 16.37) scale(1.16 1)">gning C</text><text class="cls-7" transform="translate(470.16 16.37) scale(1.16 1)">r</text><text class="cls-4" transform="translate(476.21 16.37) scale(1.16 1)">e</text><text class="cls-4" transform="translate(484.49 16.37) scale(1.16 1)">a</text><text class="cls-4" transform="translate(493.8 16.37) scale(1.16 1)">t</text><text class="cls-8" transform="translate(499 16.37) scale(1.16 1)">i</text><text class="cls-4" transform="translate(503.43 16.37) scale(1.16 1)">v</text><text class="cls-3" transform="translate(511.46 16.37) scale(1.16 1)">e </text><text class="cls-9" transform="translate(523.81 16.37) scale(1.16 1)">C</text><text class="cls-3" transform="translate(533.62 16.37) scale(1.16 1)">l</text><text class="cls-3" transform="translate(538.11 16.37) scale(1.16 1)">ou</text><text class="cls-10" transform="translate(556.64 16.37) scale(1.16 1)">d</text><text class="cls-3" transform="translate(566.47 16.37) scale(1.16 1)">, </text><text class="cls-8" transform="translate(573.88 16.37) scale(1.16 1)">D</text><text class="cls-7" transform="translate(585.81 16.37) scale(1.16 1)">o</text><text class="cls-9" transform="translate(595.2 16.37) scale(1.16 1)">c</text><text class="cls-3" transform="translate(602.21 16.37) scale(1.16 1)">um</text><text class="cls-3" transform="translate(626.35 16.37) scale(1.16 1)">e</text><text class="cls-3" transform="translate(634.44 16.37) scale(1.16 1)">n</text><text class="cls-3" transform="translate(644 16.37) scale(1.16 1)">t</text></g><g class="cls-2"><text class="cls-11" transform="translate(225.1 36.44) scale(1.16 1)">C</text><text class="cls-6" transform="translate(234.91 36.44) scale(1.16 1)">l</text><text class="cls-3" transform="translate(239.41 36.44) scale(1.16 1)">ou</text><text class="cls-12" transform="translate(257.94 36.44) scale(1.16 1)">d</text><text class="cls-3" transform="translate(267.77 36.44) scale(1.16 1)">, and </text><text class="cls-12" transform="translate(307.64 36.44) scale(1.16 1)">E</text><text class="cls-6" transform="translate(317.39 36.44) scale(1.16 1)">x</text><text class="cls-6" transform="translate(325.02 36.44) scale(1.16 1)">p</text><text class="cls-3" transform="translate(334.53 36.44) scale(1.16 1)">e</text><text class="cls-7" transform="translate(342.61 36.44) scale(1.16 1)">r</text><text class="cls-3" transform="translate(348.66 36.44) scale(1.16 1)">i</text><text class="cls-3" transform="translate(352.9 36.44) scale(1.16 1)">e</text><text class="cls-3" transform="translate(360.99 36.44) scale(1.16 1)">nce </text><text class="cls-9" transform="translate(390.07 36.44) scale(1.16 1)">C</text><text class="cls-4" transform="translate(399.88 36.44) scale(1.16 1)">l</text><text class="cls-3" transform="translate(404.38 36.44) scale(1.16 1)">ou</text><text class="cls-3" transform="translate(422.9 36.44) scale(1.16 1)">d</text><text class="cls-3" transform="translate(432.15 36.44) scale(1.16 1)">.</text></g></g></g></svg>