<svg id="Adobe_Design" data-name="Adobe Design" xmlns="http://www.w3.org/2000/svg" width="185.874" height="57.78" viewBox="0 0 185.874 57.78">
  <g id="Group_288707" data-name="Group 288707" transform="translate(77.16 3.858)">
    <path id="Path_105036" data-name="Path 105036" d="M113.968,37.311l-1.215,3.837a.4.4,0,0,1-.448.351h-4.636c-.32,0-.384-.16-.32-.416l6.075-17.744a7.327,7.327,0,0,0,.352-2.334.235.235,0,0,1,.255-.256h6.331a.249.249,0,0,1,.287.193l7.066,20.174q.144.383-.192.383h-5.275a.372.372,0,0,1-.384-.255l-1.31-3.933Zm5.307-4.7c-.607-2.142-1.439-4.891-2.078-7.258h-.031c-.48,2.27-1.407,5.244-1.983,7.258Z" transform="translate(-107.327 -20.431)" fill="#fff"/>
    <path id="Path_105037" data-name="Path 105037" d="M134.332,21.006c0-.16.063-.223.223-.256h7c7.481,0,11.062,4.573,11.062,10.1,0,7.705-6.171,10.646-11.605,10.646h-6.427c-.16,0-.255-.1-.255-.351Zm5.595,15.825h1.278c3.422,0,5.659-1.662,5.659-5.851,0-3.772-1.855-5.531-5.371-5.531h-1.566Z" transform="translate(-111.516 -20.431)" fill="#fff"/>
    <path id="Path_105038" data-name="Path 105038" d="M179.17,30.922c0,6.427-3.932,10.839-10.231,10.839-6.363,0-10.166-4.38-10.166-10.743,0-5.883,3.868-10.646,10.231-10.646C175.59,20.372,179.17,25.391,179.17,30.922ZM169.1,37.03c2.717,0,4.316-2.111,4.316-5.979,0-3.613-1.534-5.946-4.508-5.946-2.846,0-4.38,2.4-4.38,5.946C164.527,34.535,166.126,37.03,169.1,37.03Z" transform="translate(-115.307 -20.372)" fill="#fff"/>
    <path id="Path_105039" data-name="Path 105039" d="M186.81,21.116c0-.255.063-.319.255-.351.735-.033,3.389-.128,7.225-.128,7.162,0,8.537,3.325,8.537,5.627a4.985,4.985,0,0,1-1.919,4.093,5.174,5.174,0,0,1,2.846,4.763c0,4.061-3.549,6.522-9.527,6.458-2.43,0-6.171-.1-7.162-.1-.192-.032-.255-.128-.255-.319Zm5.466,7.418h2.4c.863,0,1.759.1,2.174.128a2.366,2.366,0,0,0,.544-1.6c0-.831-.288-2.014-2.878-2.014-.831,0-1.694.032-2.238.064Zm0,8.537c.512.031,1.535.063,2.367.063,2.174,0,3.325-.7,3.325-2.046,0-1.31-.959-2.078-3.389-2.078h-2.3Z" transform="translate(-119.656 -20.413)" fill="#fff"/>
    <path id="Path_105040" data-name="Path 105040" d="M224.527,41.18c-.032.256-.16.319-.384.319H210.587c-.255,0-.319-.1-.319-.319V21.038c0-.224.064-.288.319-.288h13.237c.287,0,.351.033.416.256l.447,4.093c.032.192-.064.384-.255.384h-8.569v3.1h7.9c.192,0,.288.063.288.287V33.06c0,.191-.128.223-.288.223h-7.9v3.485h8.984c.287,0,.319.1.287.32Z" transform="translate(-123.295 -20.431)" fill="#fff"/>
    <path id="Path_105041" data-name="Path 105041" d="M110.116,56.764c0-.16.064-.223.223-.256h7c7.481,0,11.062,4.572,11.062,10.1,0,7.705-6.17,10.647-11.605,10.647h-6.426c-.161,0-.256-.1-.256-.352Zm5.595,15.825h1.279c3.421,0,5.659-1.662,5.659-5.85,0-3.772-1.855-5.531-5.371-5.531h-1.567Z" transform="translate(-107.76 -25.977)" fill="#fff"/>
    <path id="Path_105042" data-name="Path 105042" d="M149.914,76.938c-.032.256-.16.32-.384.32H135.974c-.256,0-.319-.1-.319-.32V56.8c0-.224.063-.288.319-.288H149.21c.288,0,.352.033.416.256l.448,4.093c.032.192-.064.384-.256.384H141.25v3.1h7.9c.192,0,.287.064.287.288v4.189c0,.192-.128.223-.287.223h-7.9v3.485h8.984c.288,0,.319.1.288.32Z" transform="translate(-111.721 -25.977)" fill="#fff"/>
    <path id="Path_105043" data-name="Path 105043" d="M156.33,76.432c-.223-.1-.287-.288-.287-.575V71.285c0-.192.128-.288.319-.192a12.071,12.071,0,0,0,6.234,1.695c2.014,0,2.718-.543,2.718-1.311,0-.8-.543-1.183-2.686-2.046l-1.439-.575c-3.644-1.439-5.179-3.357-5.179-6.234,0-3.26,2.429-6.49,8.281-6.49a14.318,14.318,0,0,1,5.116.8c.192.032.255.192.255.416v4.412c0,.1-.1.256-.351.16a11.168,11.168,0,0,0-5.275-1.183c-1.95,0-2.59.7-2.59,1.408,0,.607.287,1.118,2.686,2.013l1.278.48c4.54,1.663,5.531,3.709,5.531,6.394,0,4.284-3.708,6.49-8.76,6.49A13.441,13.441,0,0,1,156.33,76.432Z" transform="translate(-114.879 -25.919)" fill="#fff"/>
    <path id="Path_105044" data-name="Path 105044" d="M182.681,76.875c0,.255-.064.384-.351.384h-4.892c-.288,0-.351-.128-.351-.384V56.8c0-.224.128-.288.319-.288h4.955c.224,0,.32.064.32.288Z" transform="translate(-118.148 -25.977)" fill="#fff"/>
    <path id="Path_105045" data-name="Path 105045" d="M198.015,69.718c-.255-.032-.287-.128-.287-.384V65.4c0-.192.064-.255.256-.255h7.96c.224,0,.288.1.288.287V75.953c0,.224-.032.32-.256.384a18.825,18.825,0,0,1-6.778,1.183c-7.8,0-11.669-4.54-11.669-10.678,0-6.65,4.827-10.711,12.181-10.711a15.046,15.046,0,0,1,5.755.8c.192.064.225.192.225.48V61.6a.226.226,0,0,1-.352.224A12.486,12.486,0,0,0,199.9,60.8c-4.188-.032-6.65,2.4-6.65,6.01,0,3.517,2.078,5.979,6.075,5.979a4.941,4.941,0,0,0,1.311-.1V69.878Z" transform="translate(-119.768 -25.919)" fill="#fff"/>
    <path id="Path_105046" data-name="Path 105046" d="M214.738,77.258c-.287,0-.383-.033-.383-.384V56.764c0-.192.128-.256.319-.256h6.457c.288,0,.352.033.48.288,1.758,3.581,5.02,10.838,5.851,13.012h.064c-.064-.959-.128-2.877-.128-6.394V56.828c0-.224.064-.32.352-.32h4.507c.288,0,.384.1.384.352V76.875c0,.319-.128.384-.416.384h-5.979c-.319,0-.416-.064-.511-.288C223.594,72.4,221,66.611,219.47,62.487h-.032c.128,2.206.16,3.2.16,6.3v8.121c0,.224-.064.352-.321.352Z" transform="translate(-123.929 -25.977)" fill="#fff"/>
  </g>
  <g id="Group_288708" data-name="Group 288708">
    <path id="Path_105047" data-name="Path 105047" d="M64.709,15.806H88.841v57.78Z" transform="translate(-23.556 -15.806)" fill="#fff"/>
    <path id="Path_105048" data-name="Path 105048" d="M40.151,15.806H16v57.78Z" transform="translate(-16 -15.806)" fill="#fff"/>
    <path id="Path_105049" data-name="Path 105049" d="M52.709,41.008,68.088,77.492H58.01l-4.6-11.62H42.157Z" transform="translate(-20.057 -19.715)" fill="#fff"/>
  </g>
</svg>
