<svg id="Layer_1" data-name="Layer 1" xmlns="http://www.w3.org/2000/svg" viewBox="0 0 665.65 42.39"><defs><style>.cls-1,.cls-3{fill:#fff;}.cls-2,.cls-3{isolation:isolate;}.cls-3{font-size:16.24px;font-family:AdobeClean-It, Adobe Clean;font-style:italic;}.cls-4{letter-spacing:0em;}.cls-5{letter-spacing:0.01em;}.cls-6{letter-spacing:0.01em;}.cls-7{letter-spacing:0.02em;}.cls-8{letter-spacing:0.01em;}.cls-9{letter-spacing:0.01em;}.cls-10{letter-spacing:0em;}.cls-11{letter-spacing:0.01em;}.cls-12{letter-spacing:0em;}.cls-13{letter-spacing:0em;}.cls-14{letter-spacing:0.01em;}.cls-15{letter-spacing:0.01em;}.cls-16{letter-spacing:0.02em;}.cls-17{letter-spacing:-0.01em;}.cls-18{letter-spacing:0em;}.cls-19{letter-spacing:0.03em;}.cls-20{letter-spacing:0.01em;}.cls-21{letter-spacing:-0.01em;}.cls-22{letter-spacing:0em;}.cls-23{letter-spacing:0em;}.cls-24{letter-spacing:-0.01em;}.cls-25{letter-spacing:0.03em;}.cls-26{letter-spacing:0.03em;}.cls-27{letter-spacing:0.01em;}.cls-28{letter-spacing:0.01em;}.cls-29{letter-spacing:0em;}.cls-30{letter-spacing:0em;}.cls-31{letter-spacing:-0.01em;}</style></defs><g id="Group_290242" data-name="Group 290242"><g id="Adobe_Design" data-name="Adobe Design"><g id="Group_288707" data-name="Group 288707"><path id="Path_105036" data-name="Path 105036" class="cls-1" d="M61.48,16.82l-.89,2.82a.3.3,0,0,1-.32.26H56.86c-.23,0-.28-.12-.23-.3l4.45-13a5.22,5.22,0,0,0,.26-1.71.18.18,0,0,1,.16-.19h4.67a.19.19,0,0,1,.21.14l5.19,14.8c.07.19,0,.28-.14.28H67.56a.26.26,0,0,1-.28-.18l-1-2.89Zm3.9-3.44c-.45-1.58-1.06-3.59-1.53-5.33h0c-.35,1.67-1,3.85-1.46,5.33Z" transform="translate(0 -1.61)"/><path id="Path_105037" data-name="Path 105037" class="cls-1" d="M73.35,4.86c0-.12.05-.16.16-.19h5.14c5.49,0,8.12,3.36,8.12,7.41,0,5.66-4.53,7.82-8.52,7.82H73.54c-.12,0-.19-.07-.19-.26Zm4.1,11.61h.94c2.51,0,4.15-1.22,4.15-4.29,0-2.77-1.36-4.06-3.94-4.06H77.45Z" transform="translate(0 -1.61)"/><path id="Path_105038" data-name="Path 105038" class="cls-1" d="M103.46,12.18c0,4.71-2.88,8-7.5,8s-7.46-3.21-7.46-7.88c0-4.32,2.84-7.81,7.51-7.81C100.84,4.44,103.46,8.12,103.46,12.18Zm-7.38,4.48c2,0,3.16-1.55,3.16-4.39,0-2.65-1.12-4.36-3.31-4.36s-3.21,1.76-3.21,4.36S93.89,16.66,96.08,16.66Z" transform="translate(0 -1.61)"/><path id="Path_105039" data-name="Path 105039" class="cls-1" d="M105.88,5c0-.18,0-.23.18-.25.54,0,2.49-.1,5.3-.1,5.26,0,6.27,2.44,6.27,4.13a3.68,3.68,0,0,1-1.41,3,3.8,3.8,0,0,1,2.09,3.5c0,3-2.6,4.78-7,4.73-1.79,0-4.53-.07-5.26-.07-.14,0-.18-.09-.18-.23Zm4,5.45h1.76c.63,0,1.29.07,1.59.09a1.69,1.69,0,0,0,.4-1.17c0-.61-.21-1.48-2.11-1.48-.61,0-1.24,0-1.64,0Zm0,6.26c.37,0,1.12.05,1.73.05,1.6,0,2.44-.52,2.44-1.5s-.7-1.53-2.48-1.53h-1.69Z" transform="translate(0 -1.61)"/><path id="Path_105040" data-name="Path 105040" class="cls-1" d="M130.88,19.66c0,.19-.12.24-.28.24h-9.95c-.19,0-.23-.07-.23-.24V4.88c0-.16,0-.21.23-.21h9.71c.21,0,.26,0,.3.19l.33,3c0,.14-.05.28-.19.28h-6.28v2.28h5.79c.14,0,.21.05.21.21v3.08c0,.14-.09.16-.21.16h-5.79v2.55h6.59c.21,0,.23.07.21.24Z" transform="translate(0 -1.61)"/><path id="Path_105041" data-name="Path 105041" class="cls-1" d="M58.34,27c0-.12,0-.16.16-.19h5.14c5.49,0,8.12,3.36,8.12,7.41,0,5.66-4.53,7.81-8.52,7.81H58.52c-.11,0-.19-.07-.19-.25Zm4.1,11.61h.94c2.51,0,4.15-1.22,4.15-4.29,0-2.77-1.36-4.06-3.94-4.06H62.44Z" transform="translate(0 -1.61)"/><path id="Path_105042" data-name="Path 105042" class="cls-1" d="M84.63,41.83c0,.19-.12.23-.28.23H74.4c-.18,0-.23-.07-.23-.23V27.05c0-.17,0-.21.23-.21h9.71c.22,0,.26,0,.3.19l.33,3c0,.14,0,.28-.18.28H78.27v2.27h5.8c.14,0,.21.05.21.21v3.08c0,.14-.09.16-.21.16h-5.8v2.56h6.59c.22,0,.24.07.22.24Z" transform="translate(0 -1.61)"/><path id="Path_105043" data-name="Path 105043" class="cls-1" d="M87,41.5c-.16-.07-.21-.21-.21-.42V37.72c0-.14.09-.21.23-.14a8.9,8.9,0,0,0,4.58,1.24c1.48,0,2-.4,2-1s-.4-.87-2-1.5l-1-.42c-2.68-1.06-3.8-2.46-3.8-4.57,0-2.4,1.78-4.77,6.07-4.77a10.6,10.6,0,0,1,3.75.59c.14,0,.19.14.19.3v3.24c0,.07-.07.19-.26.11A8.12,8.12,0,0,0,92.67,30c-1.43,0-1.9.51-1.9,1s.21.82,2,1.48l.94.35c3.33,1.22,4.06,2.72,4.06,4.69,0,3.14-2.72,4.76-6.43,4.76A9.86,9.86,0,0,1,87,41.5Z" transform="translate(0 -1.61)"/><path id="Path_105044" data-name="Path 105044" class="cls-1" d="M104,41.78c0,.19,0,.28-.26.28h-3.59c-.21,0-.26-.09-.26-.28V27.05c0-.17.09-.21.23-.21h3.64c.16,0,.23.05.23.21Z" transform="translate(0 -1.61)"/><path id="Path_105045" data-name="Path 105045" class="cls-1" d="M114,36.57c-.19,0-.21-.09-.21-.28V33.41c0-.15,0-.19.18-.19h5.84c.17,0,.21.07.21.21v7.72c0,.16,0,.23-.18.28a14.08,14.08,0,0,1-5,.87c-5.72,0-8.56-3.33-8.56-7.84,0-4.88,3.54-7.86,8.94-7.86a11,11,0,0,1,4.22.59c.14,0,.17.14.17.35v3.07a.18.18,0,0,1-.14.2.24.24,0,0,1-.12,0,9.12,9.12,0,0,0-4-.75c-3.07,0-4.88,1.76-4.88,4.41a4.08,4.08,0,0,0,3.73,4.39,3.56,3.56,0,0,0,.73,0,3.46,3.46,0,0,0,1-.07V36.69Z" transform="translate(0 -1.61)"/><path id="Path_105046" data-name="Path 105046" class="cls-1" d="M123.23,42.06c-.21,0-.28,0-.28-.28V27c0-.14.1-.19.24-.19h4.73a.31.31,0,0,1,.36.21c1.29,2.63,3.68,8,4.29,9.55h.05c-.05-.7-.1-2.11-.1-4.69V27.07c0-.16,0-.23.26-.23h3.31c.21,0,.28.07.28.26V41.78c0,.23-.09.28-.3.28h-4.39c-.24,0-.3-.05-.38-.21-1.57-3.35-3.47-7.6-4.6-10.63h0c.09,1.62.12,2.35.12,4.62v6c0,.17,0,.26-.24.26Z" transform="translate(0 -1.61)"/></g><g id="Group_288708" data-name="Group 288708"><path id="Path_105047" data-name="Path 105047" class="cls-1" d="M30.19,1.61h17.7V44Z" transform="translate(0 -1.61)"/><path id="Path_105048" data-name="Path 105048" class="cls-1" d="M17.72,1.61H0V44Z" transform="translate(0 -1.61)"/><path id="Path_105049" data-name="Path 105049" class="cls-1" d="M24,17.23,35.24,44h-7.4l-3.37-8.53H16.21Z" transform="translate(0 -1.61)"/></g></g><g id="Stories_from_the_team_designing_Creative_Cloud_Document_Cloud_and_Experience_Cloud." data-name="Stories from the team designing Creative Cloud Document Cloud and Experience Cloud." class="cls-2"><text class="cls-3" transform="translate(236 16.41) scale(1.15 1)"><tspan class="cls-4">S</tspan><tspan class="cls-5" x="7.28" y="0">t</tspan><tspan x="11.78" y="0">o</tspan><tspan class="cls-5" x="19.75" y="0">r</tspan><tspan class="cls-6" x="25.01" y="0">i</tspan><tspan class="cls-7" x="28.7" y="0">e</tspan><tspan x="36.06" y="0">s </tspan><tspan class="cls-8" x="45.53" y="0">f</tspan><tspan class="cls-9" x="49.62" y="0">r</tspan><tspan class="cls-10" x="54.88" y="0">om the </tspan><tspan class="cls-9" x="102.92" y="0">t</tspan><tspan class="cls-11" x="107.42" y="0">e</tspan><tspan class="cls-12" x="114.62" y="0">am </tspan><tspan class="cls-6" x="139.24" y="0">d</tspan><tspan class="cls-7" x="147.41" y="0">e</tspan><tspan class="cls-13" x="154.77" y="0">s</tspan><tspan class="cls-6" x="160.55" y="0">i</tspan><tspan x="164.24" y="0">gning C</tspan><tspan class="cls-9" x="213.09" y="0">r</tspan><tspan class="cls-14" x="218.35" y="0">e</tspan><tspan class="cls-6" x="225.55" y="0">a</tspan><tspan class="cls-15" x="233.65" y="0">t</tspan><tspan class="cls-16" x="238.17" y="0">i</tspan><tspan class="cls-6" x="242.02" y="0">v</tspan><tspan x="249" y="0">e </tspan><tspan class="cls-17" x="259.74" y="0">C</tspan><tspan class="cls-18" x="268.27" y="0">l</tspan><tspan x="272.18" y="0">ou</tspan><tspan class="cls-19" x="288.29" y="0">d</tspan><tspan x="296.84" y="0">, </tspan><tspan class="cls-16" x="303.28" y="0">D</tspan><tspan class="cls-20" x="313.66" y="0">o</tspan><tspan class="cls-21" x="321.82" y="0">c</tspan><tspan x="327.92" y="0">um</tspan><tspan class="cls-22" x="348.91" y="0">e</tspan><tspan class="cls-23" x="355.94" y="0">n</tspan><tspan x="364.26" y="0">t </tspan></text><text class="cls-3" transform="translate(236 36.71) scale(1.15 1)"><tspan class="cls-24">C</tspan><tspan class="cls-6" x="8.53" y="0">l</tspan><tspan x="12.44" y="0">ou</tspan><tspan class="cls-25" x="28.55" y="0">d</tspan><tspan x="37.1" y="0">, and </tspan><tspan class="cls-26" x="71.77" y="0">E</tspan><tspan class="cls-27" x="80.25" y="0">x</tspan><tspan class="cls-28" x="86.88" y="0">p</tspan><tspan class="cls-29" x="95.15" y="0">e</tspan><tspan class="cls-9" x="102.18" y="0">r</tspan><tspan class="cls-30" x="107.44" y="0">i</tspan><tspan class="cls-22" x="111.13" y="0">e</tspan><tspan class="cls-12" x="118.16" y="0">nce </tspan><tspan class="cls-31" x="143.45" y="0">C</tspan><tspan class="cls-6" x="151.98" y="0">l</tspan><tspan x="155.89" y="0">ou</tspan><tspan class="cls-23" x="172" y="0">d</tspan><tspan x="180.04" y="0">.</tspan></text></g></g></svg>