<svg xmlns="http://www.w3.org/2000/svg" width="721" height="52" viewBox="0 0 721 52">
  <g id="Group_290242" data-name="Group 290242" transform="translate(-138 -30)">
    <g id="Adobe_Design" data-name="Adobe Design" transform="translate(138 31.609)">
      <g id="Group_288707" data-name="Group 288707" transform="translate(56.61 2.83)">
        <path id="Path_105036" data-name="Path 105036" d="M112.2,32.9l-.891,2.815a.292.292,0,0,1-.329.258h-3.4c-.235,0-.281-.117-.235-.3L111.8,22.65a5.376,5.376,0,0,0,.258-1.712.173.173,0,0,1,.187-.188h4.645a.183.183,0,0,1,.211.141l5.184,14.8q.106.281-.141.281h-3.87a.273.273,0,0,1-.281-.187l-.961-2.885Zm3.893-3.448c-.446-1.571-1.056-3.588-1.525-5.325h-.023c-.352,1.666-1.032,3.847-1.455,5.325Z" transform="translate(-107.327 -20.516)" fill="#fff"/>
        <path id="Path_105037" data-name="Path 105037" d="M134.332,20.938c0-.117.046-.164.164-.188h5.137c5.488,0,8.116,3.355,8.116,7.412,0,5.653-4.527,7.811-8.514,7.811h-4.715c-.117,0-.187-.07-.187-.258Zm4.1,11.611h.938c2.51,0,4.152-1.219,4.152-4.293,0-2.768-1.361-4.058-3.94-4.058h-1.149Z" transform="translate(-117.593 -20.516)" fill="#fff"/>
        <path id="Path_105038" data-name="Path 105038" d="M173.738,28.112c0,4.715-2.885,7.952-7.506,7.952-4.668,0-7.459-3.213-7.459-7.882,0-4.316,2.838-7.811,7.506-7.811C171.111,20.372,173.738,24.055,173.738,28.112Zm-7.388,4.481c1.993,0,3.166-1.548,3.166-4.387,0-2.651-1.126-4.363-3.308-4.363-2.088,0-3.213,1.759-3.213,4.363C162.995,30.763,164.168,32.593,166.35,32.593Z" transform="translate(-126.884 -20.372)" fill="#fff"/>
        <path id="Path_105039" data-name="Path 105039" d="M186.81,20.988c0-.187.047-.234.187-.257.539-.024,2.486-.094,5.3-.094,5.255,0,6.263,2.44,6.263,4.128a3.658,3.658,0,0,1-1.408,3,3.8,3.8,0,0,1,2.088,3.495c0,2.979-2.6,4.785-6.99,4.738-1.783,0-4.527-.071-5.255-.071-.141-.024-.187-.094-.187-.234Zm4.01,5.442h1.759c.633,0,1.291.07,1.595.094a1.736,1.736,0,0,0,.4-1.173c0-.61-.211-1.478-2.111-1.478-.61,0-1.243.024-1.642.047Zm0,6.263c.376.023,1.126.046,1.736.046,1.595,0,2.439-.516,2.439-1.5,0-.961-.7-1.525-2.486-1.525h-1.689Z" transform="translate(-137.542 -20.473)" fill="#fff"/>
        <path id="Path_105040" data-name="Path 105040" d="M220.729,35.739c-.024.188-.117.234-.281.234H210.5c-.187,0-.234-.07-.234-.234V20.961c0-.164.047-.211.234-.211h9.711c.211,0,.258.024.3.188l.328,3c.024.141-.047.281-.187.281h-6.287V26.5h5.794c.141,0,.211.046.211.211v3.073c0,.14-.094.164-.211.164h-5.794V32.5h6.592c.211,0,.234.07.211.235Z" transform="translate(-146.459 -20.516)" fill="#fff"/>
        <path id="Path_105041" data-name="Path 105041" d="M110.116,56.7c0-.117.047-.164.164-.188h5.137c5.489,0,8.116,3.355,8.116,7.412,0,5.653-4.527,7.811-8.514,7.811H110.3c-.118,0-.188-.071-.188-.258Zm4.1,11.611h.938c2.51,0,4.152-1.219,4.152-4.292,0-2.768-1.361-4.058-3.94-4.058h-1.15Z" transform="translate(-108.387 -34.109)" fill="#fff"/>
        <path id="Path_105042" data-name="Path 105042" d="M146.116,71.5c-.024.188-.117.235-.282.235h-9.945c-.188,0-.234-.071-.234-.235V56.719c0-.164.046-.211.234-.211H145.6c.211,0,.258.024.3.188l.329,3c.024.141-.047.281-.188.281H139.76v2.275h5.794c.141,0,.211.047.211.211v3.073c0,.141-.094.164-.211.164H139.76V68.26h6.591c.211,0,.234.071.211.235Z" transform="translate(-118.096 -34.109)" fill="#fff"/>
        <path id="Path_105043" data-name="Path 105043" d="M156.245,71.025c-.164-.07-.211-.211-.211-.422V67.248c0-.141.094-.211.234-.141a8.856,8.856,0,0,0,4.574,1.243c1.478,0,1.994-.4,1.994-.962,0-.586-.4-.868-1.971-1.5l-1.056-.422c-2.673-1.056-3.8-2.463-3.8-4.574,0-2.392,1.782-4.762,6.075-4.762a10.5,10.5,0,0,1,3.753.586c.141.024.187.141.187.3v3.237c0,.071-.071.188-.258.117a8.194,8.194,0,0,0-3.87-.868c-1.431,0-1.9.516-1.9,1.033,0,.445.211.82,1.971,1.477l.938.352c3.331,1.22,4.058,2.721,4.058,4.691,0,3.143-2.721,4.762-6.427,4.762A9.861,9.861,0,0,1,156.245,71.025Z" transform="translate(-125.834 -33.965)" fill="#fff"/>
        <path id="Path_105044" data-name="Path 105044" d="M181.191,71.45c0,.187-.047.281-.258.281h-3.589c-.211,0-.258-.094-.258-.281V56.719c0-.164.094-.211.234-.211h3.635c.164,0,.235.047.235.211Z" transform="translate(-133.845 -34.109)" fill="#fff"/>
        <path id="Path_105045" data-name="Path 105045" d="M195.222,66.1c-.187-.024-.211-.094-.211-.282V62.932c0-.141.047-.187.188-.187h5.84c.164,0,.211.07.211.211v7.717c0,.164-.024.235-.188.281a13.811,13.811,0,0,1-4.973.868c-5.724,0-8.561-3.33-8.561-7.834,0-4.879,3.541-7.858,8.937-7.858a11.039,11.039,0,0,1,4.222.586c.141.047.165.141.165.352v3.073a.166.166,0,0,1-.258.164,9.16,9.16,0,0,0-3.988-.751c-3.073-.024-4.879,1.759-4.879,4.41a4.074,4.074,0,0,0,4.457,4.387,3.625,3.625,0,0,0,.962-.071V66.216Z" transform="translate(-137.815 -33.965)" fill="#fff"/>
        <path id="Path_105046" data-name="Path 105046" d="M214.636,71.732c-.211,0-.281-.024-.281-.281V56.7c0-.141.094-.188.234-.188h4.738c.211,0,.258.024.352.211,1.29,2.627,3.683,7.952,4.293,9.546h.047c-.047-.7-.094-2.111-.094-4.691V56.743c0-.164.047-.235.259-.235h3.307c.211,0,.282.071.282.258V71.45c0,.234-.094.281-.3.281H223.08c-.234,0-.3-.047-.375-.211-1.572-3.354-3.472-7.6-4.6-10.626h-.024c.094,1.618.118,2.346.118,4.62v5.958c0,.164-.047.258-.236.258Z" transform="translate(-148.013 -34.109)" fill="#fff"/>
      </g>
      <g id="Group_288708" data-name="Group 288708">
        <path id="Path_105047" data-name="Path 105047" d="M64.709,15.806h17.7V58.2Z" transform="translate(-34.516 -15.806)" fill="#fff"/>
        <path id="Path_105048" data-name="Path 105048" d="M33.719,15.806H16V58.2Z" transform="translate(-16 -15.806)" fill="#fff"/>
        <path id="Path_105049" data-name="Path 105049" d="M49.9,41.008,61.182,67.775H53.788L50.413,59.25H42.157Z" transform="translate(-25.943 -25.386)" fill="#fff"/>
      </g>
    </g>
    <text id="Stories_from_the_team_designing_Creative_Cloud_Document_Cloud_and_Experience_Cloud." data-name="Stories from the team designing Creative Cloud, Document Cloud, and Experience Cloud." transform="translate(374 31)" fill="#fff" font-size="20" font-family="AdobeCleanSerif-It, Adobe Clean Serif" font-style="italic"><tspan x="0" y="14">Stories from the team designing Creative Cloud, Document </tspan><tspan x="0" y="39">Cloud, and Experience Cloud.</tspan></text>
  </g>
</svg>
